<svg width="100" height="40" xmlns="http://www.w3.org/2000/svg">
 <metadata id="metadata16">image/svg+xml</metadata>

 <g>
  <title>Layer 1</title>
  <path fill="#fefefe" stroke-width="0.62677" id="path4-7" d="m88.30257,28.81179l0,4.95524l-9.17718,0l0,-27.55596l4.94208,0l0,22.60072l4.2351,0zm-39.21327,-9.08817c-0.38233,0.18427 -0.78221,0.27577 -1.17206,0.27702l0,-8.86253l0.02507,0c0.38985,-0.0031 3.29932,0.11533 3.29932,4.38301c0,2.23067 -0.9903,3.63777 -2.15233,4.2025zm-14.48341,5.44099l1.36824,-11.78266l1.41963,11.78266l-2.78787,0zm43.65769,-13.92371l0,-5.02545l-13.99328,0l-2.30338,16.78429l-2.27517,-16.78491l-5.04676,0l0.56472,4.48141c-0.58164,-1.14825 -2.64748,-4.48141 -7.19532,-4.48141c-0.02946,-0.0013 -5.05177,0 -5.05177,0l-0.01943,24.4641l-3.67789,-24.46348l-6.6093,-0.0031l-3.80575,25.3466l0.0013,-25.34347l-6.32478,0l-2.28019,14.23831l-2.22127,-14.23897l-6.32788,0l0,27.55659l4.98283,0l0,-13.28252l2.26765,13.28252l2.64874,0l2.23443,-13.28252l0,13.28252l9.60651,0l0.58165,-4.23822l3.86717,0l0.58102,4.23822l9.43101,0.005l0.0063,0l0,-0.005l0.01253,0l0,-8.94402l1.15639,-0.16923l2.39239,9.11951l4.87878,0l-0.0013,-0.0063l0.01379,0l-3.14072,-10.68517c1.59075,-1.17832 3.38832,-4.16426 2.9101,-7.0217l0,-0.0013c0.005,0.03638 2.964,17.72569 2.964,17.72569l5.80138,-0.0169l3.96558,-24.9768l0,24.9768l9.40594,0l0,-4.9565l-4.46511,0l0,-6.31785l4.46511,0l0,-5.03297l-4.46511,0l0,-6.22445l4.46511,0l-0.00002,0.00068z"/>
 </g>
</svg>